<?xml version="1.0" encoding="utf-8"?>
<svg xmlns="http://www.w3.org/2000/svg" viewBox="0 0 500 500">
  <defs>
    <linearGradient x1="0%" y1="100%" x2="100%" y2="0%" id="linearGradient-1">
      <stop stop-color="#C8511B" offset="0"/>
      <stop stop-color="#FF9900" offset="1"/>
    </linearGradient>
    <linearGradient x1="0%" y1="100%" x2="100%" y2="0%" id="gradient-1">
      <stop stop-color="#1B660F" offset="0"/>
      <stop stop-color="#6CAE3E" offset="1"/>
    </linearGradient>
  </defs>
  <title>Icon-Architecture/64/Arch_Amazon-EC2_64</title>
  <desc>Created with Sketch.</desc>
  <g id="Icon-Architecture/64/Arch_Amazon-EC2_64" stroke="none" stroke-width="1" fill="none" fill-rule="evenodd" transform="matrix(6.195894, 0, 0, 6.215917, 2.279431, 1.821883)" style="">
    <g id="Icon-Architecture-BG/64/Compute" fill="url(#linearGradient-1)" transform="matrix(1, 0, 0, 1, -0.238563, 0)">
      <rect id="Rectangle" x="0" y="0" width="80" height="80"/>
    </g>
    <circle cx="512" cy="512" r="82.635" style="fill: rgb(35, 47, 62); stroke-width: 0.161;" transform="matrix(0.178712, 0, 0, 0.170845, -27.866699, -22.938076)"/>
    <path d="M 57.55 62.914 C 57.55 63.087 57.569 63.227 57.605 63.33 C 57.645 63.434 57.693 63.547 57.762 63.67 C 57.789 63.705 57.796 63.743 57.796 63.777 C 57.796 63.823 57.769 63.87 57.705 63.918 L 57.396 64.114 C 57.358 64.138 57.315 64.154 57.27 64.154 C 57.22 64.154 57.17 64.128 57.122 64.087 C 57.055 64.019 56.998 63.947 56.946 63.867 C 56.891 63.777 56.839 63.686 56.793 63.591 C 56.41 64.024 55.927 64.239 55.348 64.239 C 54.936 64.239 54.607 64.127 54.367 63.903 C 54.129 63.678 54.005 63.377 54.005 63.002 C 54.005 62.602 54.151 62.279 54.451 62.034 C 54.751 61.787 55.15 61.667 55.655 61.667 C 55.82 61.667 55.994 61.68 56.174 61.706 C 56.355 61.73 56.543 61.766 56.739 61.81 L 56.739 61.469 C 56.739 61.113 56.66 60.862 56.508 60.718 C 56.351 60.573 56.086 60.503 55.708 60.503 C 55.536 60.503 55.36 60.522 55.177 60.563 C 54.996 60.606 54.82 60.658 54.648 60.725 C 54.593 60.749 54.536 60.769 54.474 60.785 C 54.448 60.793 54.422 60.795 54.396 60.798 C 54.327 60.798 54.293 60.751 54.293 60.653 L 54.293 60.423 C 54.293 60.349 54.301 60.29 54.327 60.258 C 54.365 60.217 54.41 60.181 54.465 60.158 C 54.639 60.073 54.843 60.003 55.082 59.946 C 55.334 59.886 55.591 59.855 55.85 59.858 C 56.436 59.858 56.862 59.985 57.136 60.238 C 57.408 60.491 57.543 60.875 57.543 61.394 L 57.543 62.915 L 57.55 62.914 Z M 55.557 63.627 C 55.717 63.627 55.886 63.599 56.06 63.542 C 56.236 63.487 56.394 63.382 56.527 63.242 C 56.607 63.154 56.667 63.054 56.694 62.94 C 56.724 62.827 56.744 62.693 56.744 62.532 L 56.744 62.337 C 56.594 62.302 56.444 62.275 56.291 62.258 C 56.139 62.238 55.982 62.23 55.831 62.23 C 55.501 62.23 55.258 62.29 55.098 62.417 C 54.936 62.543 54.858 62.723 54.858 62.958 C 54.858 63.178 54.915 63.343 55.039 63.454 C 55.158 63.572 55.327 63.627 55.557 63.627 Z M 59.5 64.135 C 59.408 64.135 59.351 64.122 59.312 64.087 C 59.27 64.06 59.236 63.994 59.208 63.906 L 58.055 60.277 C 58.031 60.217 58.015 60.153 58.01 60.09 C 58.01 60.015 58.051 59.971 58.129 59.971 L 58.61 59.971 C 58.703 59.971 58.765 59.985 58.8 60.018 C 58.841 60.046 58.87 60.113 58.9 60.202 L 59.724 63.31 L 60.491 60.202 C 60.517 60.109 60.546 60.049 60.582 60.018 C 60.641 59.982 60.71 59.966 60.779 59.971 L 61.174 59.971 C 61.267 59.971 61.334 59.985 61.37 60.018 C 61.408 60.046 61.446 60.113 61.464 60.202 L 62.238 63.348 L 63.089 60.202 C 63.119 60.109 63.153 60.049 63.188 60.018 C 63.246 59.982 63.312 59.966 63.377 59.971 L 63.838 59.971 C 63.915 59.971 63.962 60.01 63.962 60.09 C 63.962 60.114 63.955 60.137 63.95 60.165 C 63.941 60.206 63.929 60.245 63.915 60.282 L 62.733 63.911 C 62.703 64.006 62.669 64.066 62.627 64.094 C 62.574 64.127 62.507 64.143 62.441 64.14 L 62.017 64.14 C 61.924 64.14 61.862 64.127 61.82 64.094 C 61.783 64.06 61.748 63.999 61.729 63.906 L 60.967 60.878 L 60.212 63.903 C 60.184 63.998 60.157 64.058 60.119 64.091 C 60.079 64.123 60.01 64.138 59.924 64.138 L 59.5 64.135 Z M 65.81 64.262 C 65.553 64.262 65.3 64.234 65.053 64.176 C 64.808 64.122 64.619 64.058 64.488 63.988 C 64.412 63.947 64.357 63.9 64.336 63.857 C 64.315 63.815 64.307 63.771 64.307 63.723 L 64.307 63.485 C 64.307 63.384 64.348 63.338 64.419 63.338 C 64.448 63.338 64.477 63.343 64.508 63.351 C 64.538 63.359 64.584 63.379 64.633 63.399 C 64.8 63.47 64.983 63.526 65.172 63.563 C 65.369 63.603 65.558 63.619 65.757 63.619 C 66.067 63.619 66.308 63.567 66.476 63.464 C 66.638 63.371 66.736 63.199 66.733 63.018 C 66.736 62.897 66.689 62.778 66.6 62.69 C 66.51 62.602 66.343 62.522 66.103 62.445 L 65.391 62.231 C 65.034 62.124 64.769 61.965 64.607 61.755 C 64.448 61.559 64.362 61.319 64.362 61.074 C 64.362 60.878 64.408 60.705 64.495 60.553 C 64.584 60.405 64.7 60.271 64.85 60.166 C 64.996 60.06 65.164 59.979 65.36 59.922 C 65.557 59.866 65.764 59.842 65.981 59.842 C 66.086 59.842 66.202 59.848 66.308 59.861 C 66.421 59.874 66.526 59.894 66.629 59.913 C 66.727 59.938 66.822 59.961 66.908 59.988 C 66.998 60.015 67.067 60.042 67.117 60.073 C 67.174 60.101 67.226 60.142 67.264 60.191 C 67.295 60.238 67.31 60.29 67.307 60.346 L 67.307 60.566 C 67.307 60.666 67.267 60.718 67.195 60.718 C 67.127 60.71 67.065 60.69 67.007 60.664 C 66.71 60.539 66.389 60.477 66.064 60.481 C 65.784 60.481 65.562 60.522 65.408 60.614 C 65.257 60.702 65.177 60.839 65.177 61.03 C 65.177 61.162 65.227 61.275 65.326 61.363 C 65.422 61.451 65.605 61.543 65.865 61.623 L 66.562 61.831 C 66.915 61.939 67.171 62.091 67.324 62.285 C 67.476 62.478 67.55 62.698 67.55 62.94 C 67.55 63.142 67.507 63.327 67.422 63.487 C 67.333 63.647 67.215 63.787 67.065 63.9 C 66.912 64.019 66.731 64.102 66.519 64.163 C 66.291 64.229 66.062 64.262 65.81 64.262 Z M 66.738 66.543 C 65.122 67.684 62.776 68.288 60.757 68.288 C 57.927 68.288 55.377 67.287 53.453 65.624 C 53.301 65.491 53.439 65.315 53.62 65.418 C 55.703 66.572 58.274 67.272 60.929 67.272 C 62.724 67.272 64.691 66.916 66.505 66.183 C 66.772 66.068 67.003 66.355 66.738 66.543 Z M 67.41 65.811 C 67.203 65.558 66.043 65.69 65.519 65.751 C 65.362 65.77 65.338 65.638 65.481 65.539 C 66.403 64.918 67.921 65.096 68.1 65.304 C 68.276 65.516 68.052 66.967 67.186 67.661 C 67.053 67.768 66.926 67.715 66.984 67.573 C 67.181 67.107 67.619 66.059 67.41 65.811 Z" style="fill: rgb(255, 255, 255); stroke-width: 0.161;"/>
    <title>Icon-Architecture/64/Arch_Amazon-Simple-Storage-Service_64</title>
    <g id="Icon-Architecture/64/Arch_Amazon-Simple-Storage-Service_64" stroke="none" stroke-width="1" fill="none" fill-rule="evenodd" transform="matrix(0.629577, 0, 0, 0.681053, 2.116812, 1.277041)" style="">
      <g id="group-1" fill="url(#gradient-1)">
        <rect x="0" y="0" width="80" height="80"/>
      </g>
      <g id="Icon-Service/64/Amazon-Simple-Storage-Service_64" transform="translate(8.000000, 8.000000)" fill="#FFFFFF">
        <path d="M52.8359,34.8926 L53.2199,32.1886 C56.7609,34.3096 56.8069,35.1856 56.8059132,35.2096 C56.7999,35.2146 56.1959,35.7186 52.8359,34.8926 L52.8359,34.8926 Z M50.8929,34.3526 C44.7729,32.5006 36.2499,28.5906 32.8009,26.9606 C32.8009,26.9466 32.8049,26.9336 32.8049,26.9196 C32.8049,25.5946 31.7269,24.5166 30.4009,24.5166 C29.0769,24.5166 27.9989,25.5946 27.9989,26.9196 C27.9989,28.2446 29.0769,29.3226 30.4009,29.3226 C30.9829,29.3226 31.5109,29.1056 31.9279,28.7606 C35.9859,30.6816 44.4429,34.5346 50.6079,36.3546 L48.1699,53.5606 C48.1629,53.6076 48.1599,53.6546 48.1599,53.7016 C48.1599,55.2166 41.4529,57.9996 30.4939,57.9996 C19.4189,57.9996 12.6409,55.2166 12.6409,53.7016 C12.6409,53.6556 12.6379,53.6106 12.6319,53.5656 L7.5379,16.3586 C11.9469,19.3936 21.4299,20.9996 30.4999,20.9996 C39.5559,20.9996 49.0229,19.3996 53.4409,16.3736 L50.8929,34.3526 Z M6.9999,12.4776 C7.0719,11.1616 14.6339,5.9996 30.4999,5.9996 C46.3639,5.9996 53.9269,11.1606 53.9999,12.4776 L53.9999,12.9266 C53.1299,15.8776 43.3299,18.9996 30.4999,18.9996 C17.6479,18.9996 7.8429,15.8676 6.9999,12.9126 L6.9999,12.4776 Z M55.9999,12.4996 C55.9999,9.0346 46.0659,3.9996 30.4999,3.9996 C14.9339,3.9996 4.9999,9.0346 4.9999,12.4996 L5.0939,13.2536 L10.6419,53.7776 C10.7749,58.3096 22.8609,59.9996 30.4939,59.9996 C39.9659,59.9996 50.0289,57.8216 50.1589,53.7806 L52.5549,36.8836 C53.8879,37.2026 54.9849,37.3656 55.8659,37.3656 C57.0489,37.3656 57.8489,37.0766 58.3339,36.4986 C58.7319,36.0246 58.8839,35.4506 58.7699,34.8396 C58.5109,33.4556 56.8679,31.9636 53.5219,30.0546 L55.8979,13.2926 L55.9999,12.4996 Z" id="Amazon-Simple-Storage-Service-Icon_64_Squid"/>
      </g>
    </g>
  </g>
</svg>