<?xml version="1.0" encoding="iso-8859-1"?>
<!-- Uploaded to: SVG Repo, www.svgrepo.com, Generator: SVG Repo Mixer Tools -->
<svg version="1.1" id="Layer_1" xmlns="http://www.w3.org/2000/svg" xmlns:xlink="http://www.w3.org/1999/xlink" 
	 viewBox="0 0 512 512" xml:space="preserve">
<circle style="fill:#A2DFE9;" cx="256" cy="256" r="256"/>
<rect x="167.92" y="456" style="fill:#CCCCCC;" width="176" height="8"/>
<polygon style="fill:#ADADAD;" points="311.92,456 199.92,456 207.92,400 303.92,400 "/>
<path style="fill:#CCCCCC;" d="M447.92,360v32c0,4.4-3.6,8-8,8h-368c-4.4,0-8-3.6-8-8v-32H447.92z"/>
<rect id="SVGCleanerId_0" x="79.92" y="120" style="fill:#FFFFFF;" width="352" height="224"/>
<path style="fill:#3B3B3B;" d="M439.92,104h-368c-4.4,0-8,3.6-8,8v248h384V112C447.92,107.6,444.32,104,439.92,104z M431.912,344
	H79.92V120h352v224H431.912z"/>
<g>
	<rect id="SVGCleanerId_0_1_" x="79.92" y="120" style="fill:#FFFFFF;" width="352" height="224"/>
</g>
<g>
	<rect x="135.92" y="240" style="fill:#CCCCCC;" width="240" height="8"/>
	<rect x="135.92" y="216" style="fill:#CCCCCC;" width="240" height="8"/>
	<rect x="135.92" y="192" style="fill:#CCCCCC;" width="240" height="8"/>
	<rect x="135.92" y="168" style="fill:#CCCCCC;" width="240" height="8"/>
	<rect x="135.92" y="144" style="fill:#CCCCCC;" width="240" height="8"/>
	<rect x="311.92" y="264" style="fill:#CCCCCC;" width="64" height="56"/>
	<rect x="135.92" y="264" style="fill:#CCCCCC;" width="64" height="56"/>
	<rect x="223.92" y="264" style="fill:#CCCCCC;" width="64" height="56"/>
</g>
</svg>