<?xml version="1.0" encoding="utf-8"?>
<svg xmlns="http://www.w3.org/2000/svg" style="border-radius:3px;" viewBox="0 0 128 128">
  <title>path21</title>
  <rect x="-0.094" y="-0.363" width="128.12" height="128.822"
    style="stroke: rgb(0, 0, 0); fill: rgb(10, 102, 194); stroke-width: 0px;" />
  <rect x="7.979" y="7.359" width="112.324" height="109.867"
    style="fill: rgb(216, 216, 216); stroke: rgb(0, 0, 0); stroke-width: 0px;" />
  <path
    d="M 107.651 108.889 L 88.973 108.889 L 88.973 78.985 C 88.973 71.854 88.846 62.673 79.258 62.673 C 69.529 62.673 68.038 70.449 68.038 78.457 L 68.038 108.889 L 49.359 108.889 L 49.359 47.392 L 67.293 47.392 L 67.293 55.8 L 67.544 55.8 C 71.198 49.422 78.005 45.601 85.235 45.869 C 104.163 45.869 107.661 58.594 107.661 75.162 L 107.651 108.879 L 107.651 108.889 Z M 28.285 38.985 C 22.319 38.955 17.487 34.013 17.444 27.916 C 17.444 21.837 22.341 16.834 28.285 16.834 C 34.233 16.834 39.115 21.837 39.128 27.916 C 39.128 33.993 34.233 38.996 28.285 38.996 L 28.285 38.985 Z M 37.625 108.889 L 18.928 108.889 L 18.928 47.392 L 37.625 47.392 L 37.625 108.889 Z M 116.947 -0.904 L 9.533 -0.904 C 4.47 -0.936 0.322 3.206 0.236 8.394 L 0.236 118.649 C 0.322 123.826 4.47 127.97 9.533 127.946 L 116.959 127.946 C 122.043 127.978 126.212 123.836 126.297 118.649 L 126.297 8.381 C 126.212 3.188 122.043 -0.949 116.959 -0.896 L 116.947 -0.904 Z"
    style="stroke-width: 1; fill-rule: nonzero; paint-order: stroke markers; transform-box: fill-box; transform-origin: 50% 50%;"
    fill="#0A66C2" transform="matrix(0.999997, -0.002303, 0.002303, 0.999997, 0, 0)" />
</svg>