<?xml version="1.0" encoding="utf-8"?>
<svg style="background:white;border-radius:3px;overflow:hidden;" xmlns="http://www.w3.org/2000/svg"
  viewBox="0 0 128 128">
  <g fill="#61DAFB" style="" transform="matrix(0.425467, 0, 0, 0.42134, 2.208399, 33.821224)">
    <circle cx="64" cy="64" r="11.4" />
    <path
      d="M107.3 45.2c-2.2-.8-4.5-1.6-6.9-2.3.6-2.4 1.1-4.8 1.5-7.1 2.1-13.2-.2-22.5-6.6-26.1-1.9-1.1-4-1.6-6.4-1.6-7 0-15.9 5.2-24.9 13.9-9-8.7-17.9-13.9-24.9-13.9-2.4 0-4.5.5-6.4 1.6-6.4 3.7-8.7 13-6.6 26.1.4 2.3.9 4.7 1.5 7.1-2.4.7-4.7 1.4-6.9 2.3C8.2 50 1.4 56.6 1.4 64s6.9 14 19.3 18.8c2.2.8 4.5 1.6 6.9 2.3-.6 2.4-1.1 4.8-1.5 7.1-2.1 13.2.2 22.5 6.6 26.1 1.9 1.1 4 1.6 6.4 1.6 7.1 0 16-5.2 24.9-13.9 9 8.7 17.9 13.9 24.9 13.9 2.4 0 4.5-.5 6.4-1.6 6.4-3.7 8.7-13 6.6-26.1-.4-2.3-.9-4.7-1.5-7.1 2.4-.7 4.7-1.4 6.9-2.3 12.5-4.8 19.3-11.4 19.3-18.8s-6.8-14-19.3-18.8zM92.5 14.7c4.1 2.4 5.5 9.8 3.8 20.3-.3 2.1-.8 4.3-1.4 6.6-5.2-1.2-10.7-2-16.5-2.5-3.4-4.8-6.9-9.1-10.4-13 7.4-7.3 14.9-12.3 21-12.3 1.3 0 2.5.3 3.5.9zM81.3 74c-1.8 3.2-3.9 6.4-6.1 9.6-3.7.3-7.4.4-11.2.4-3.9 0-7.6-.1-11.2-.4-2.2-3.2-4.2-6.4-6-9.6-1.9-3.3-3.7-6.7-5.3-10 1.6-3.3 3.4-6.7 5.3-10 1.8-3.2 3.9-6.4 6.1-9.6 3.7-.3 7.4-.4 11.2-.4 3.9 0 7.6.1 11.2.4 2.2 3.2 4.2 6.4 6 9.6 1.9 3.3 3.7 6.7 5.3 10-1.7 3.3-3.4 6.6-5.3 10zm8.3-3.3c1.5 3.5 2.7 6.9 3.8 10.3-3.4.8-7 1.4-10.8 1.9 1.2-1.9 2.5-3.9 3.6-6 1.2-2.1 2.3-4.2 3.4-6.2zM64 97.8c-2.4-2.6-4.7-5.4-6.9-8.3 2.3.1 4.6.2 6.9.2 2.3 0 4.6-.1 6.9-.2-2.2 2.9-4.5 5.7-6.9 8.3zm-18.6-15c-3.8-.5-7.4-1.1-10.8-1.9 1.1-3.3 2.3-6.8 3.8-10.3 1.1 2 2.2 4.1 3.4 6.1 1.2 2.2 2.4 4.1 3.6 6.1zm-7-25.5c-1.5-3.5-2.7-6.9-3.8-10.3 3.4-.8 7-1.4 10.8-1.9-1.2 1.9-2.5 3.9-3.6 6-1.2 2.1-2.3 4.2-3.4 6.2zM64 30.2c2.4 2.6 4.7 5.4 6.9 8.3-2.3-.1-4.6-.2-6.9-.2-2.3 0-4.6.1-6.9.2 2.2-2.9 4.5-5.7 6.9-8.3zm22.2 21l-3.6-6c3.8.5 7.4 1.1 10.8 1.9-1.1 3.3-2.3 6.8-3.8 10.3-1.1-2.1-2.2-4.2-3.4-6.2zM31.7 35c-1.7-10.5-.3-17.9 3.8-20.3 1-.6 2.2-.9 3.5-.9 6 0 13.5 4.9 21 12.3-3.5 3.8-7 8.2-10.4 13-5.8.5-11.3 1.4-16.5 2.5-.6-2.3-1-4.5-1.4-6.6zM7 64c0-4.7 5.7-9.7 15.7-13.4 2-.8 4.2-1.5 6.4-2.1 1.6 5 3.6 10.3 6 15.6-2.4 5.3-4.5 10.5-6 15.5C15.3 75.6 7 69.6 7 64zm28.5 49.3c-4.1-2.4-5.5-9.8-3.8-20.3.3-2.1.8-4.3 1.4-6.6 5.2 1.2 10.7 2 16.5 2.5 3.4 4.8 6.9 9.1 10.4 13-7.4 7.3-14.9 12.3-21 12.3-1.3 0-2.5-.3-3.5-.9zM96.3 93c1.7 10.5.3 17.9-3.8 20.3-1 .6-2.2.9-3.5.9-6 0-13.5-4.9-21-12.3 3.5-3.8 7-8.2 10.4-13 5.8-.5 11.3-1.4 16.5-2.5.6 2.3 1 4.5 1.4 6.6zm9-15.6c-2 .8-4.2 1.5-6.4 2.1-1.6-5-3.6-10.3-6-15.6 2.4-5.3 4.5-10.5 6-15.5 13.8 4 22.1 10 22.1 15.6 0 4.7-5.8 9.7-15.7 13.4z" />
  </g>
  <g fill="#000020" transform="matrix(0.132479, 0, 0, 0.168236, 59.139503, 24.696753)" style="">
    <path
      d="M 66.678 190.505 C 67.829 188.809 69.089 188.593 70.111 188.593 C 71.133 188.593 72.835 188.809 73.986 190.505 C 83.057 202.964 98.029 227.782 109.074 246.09 C 116.276 258.029 121.808 267.198 122.943 268.365 C 127.203 272.746 133.047 270.016 136.442 265.047 C 139.785 260.155 140.712 256.72 140.712 253.055 C 140.712 250.559 92.285 160.493 87.408 152.996 C 82.718 145.785 81.19 143.964 73.162 143.964 L 67.155 143.964 C 59.152 143.964 57.995 145.785 53.305 152.996 C 48.428 160.493 0 250.559 0 253.055 C 0 256.72 0.928 260.155 4.271 265.047 C 7.666 270.016 13.509 272.746 17.77 268.365 C 18.905 267.198 24.437 258.029 31.639 246.09 C 42.684 227.782 57.608 202.964 66.678 190.505 Z" />
    <path
      d="M 387.842 183.358 C 407.788 183.358 423.649 201.365 423.649 223.637 C 423.649 245.909 407.788 264.074 387.842 264.074 C 377.163 264.074 368.839 259.652 363.499 251.596 L 363.499 288.084 L 341.355 288.084 L 341.355 184.938 L 363.499 184.938 L 363.499 195.837 C 368.839 187.781 377.163 183.358 387.842 183.358 Z M 471.953 183.358 C 494.566 183.358 512 200.734 512 223.796 C 512 246.857 494.566 264.074 471.953 264.074 C 449.179 264.074 431.903 246.857 431.903 223.796 C 431.903 200.734 449.179 183.358 471.953 183.358 Z M 241.752 151.925 L 241.752 174.355 L 197.621 174.355 L 197.621 194.258 L 236.884 194.258 L 236.884 216.687 L 197.621 216.687 L 197.621 240.065 L 241.752 240.065 L 241.752 262.495 L 174.378 262.495 L 174.378 151.925 L 241.752 151.925 Z M 277.785 184.938 L 290.506 203.261 L 303.384 184.938 L 329.769 184.938 L 303.698 222.374 L 331.653 262.495 L 304.954 262.495 L 290.349 241.487 L 275.743 262.495 L 249.359 262.495 L 277.156 222.532 L 251.086 184.938 L 277.785 184.938 Z M 382.817 204.525 C 371.98 204.525 363.499 212.896 363.499 223.637 C 363.499 234.537 371.98 242.75 382.817 242.75 C 393.496 242.75 402.134 234.378 402.134 223.637 C 402.134 213.055 393.496 204.525 382.817 204.525 Z M 471.953 204.682 C 461.427 204.682 453.577 212.738 453.577 223.796 C 453.577 234.537 461.427 242.75 471.953 242.75 C 482.316 242.75 490.328 234.537 490.328 223.796 C 490.328 212.738 482.316 204.682 471.953 204.682 Z" />
  </g>
</svg>